<svg id="visual" viewBox="0 0 900 600" width="900" height="600" xmlns="http://www.w3.org/2000/svg" xmlns:xlink="http://www.w3.org/1999/xlink" version="1.1"><rect x="0" y="0" width="900" height="600" fill="#d0d8de"></rect><defs><linearGradient id="grad1_0" x1="33.3%" y1="0%" x2="100%" y2="100%"><stop offset="20%" stop-color="#d0d8de" stop-opacity="1"></stop><stop offset="80%" stop-color="#d0d8de" stop-opacity="1"></stop></linearGradient></defs><defs><linearGradient id="grad2_0" x1="0%" y1="0%" x2="66.7%" y2="100%"><stop offset="20%" stop-color="#d0d8de" stop-opacity="1"></stop><stop offset="80%" stop-color="#d0d8de" stop-opacity="1"></stop></linearGradient></defs><g transform="translate(900, 0)"><path d="M0 486.7C-23.3 443.7 -46.6 400.7 -66.9 379.2C-87.1 357.6 -104.4 357.5 -133 365.5C-161.7 373.6 -201.6 389.7 -213.5 369.8C-225.4 349.8 -209.1 293.8 -241 287.3C-273 280.8 -353.1 323.8 -372.9 312.9C-392.7 302 -352.1 237.1 -349 201.5C-345.9 165.9 -380.2 159.7 -390.9 142.3C-401.6 124.9 -388.8 96.3 -400.8 70.7C-412.9 45.1 -449.8 22.5 -486.7 0L0 0Z" fill="#0099ff"></path></g><g transform="translate(0, 600)"><path d="M0 -486.7C30.3 -490.6 60.5 -494.5 84.5 -479.4C108.5 -464.2 126.3 -430.1 151.2 -415.3C176 -400.6 207.9 -405.4 223.5 -387.1C239.1 -368.9 238.2 -327.7 265.5 -316.4C292.7 -305.1 348 -323.7 368.5 -309.2C388.9 -294.6 374.6 -246.9 364.6 -210.5C354.6 -174.1 348.9 -149 350.5 -127.6C352.1 -106.2 361.1 -88.5 385.1 -67.9C409 -47.3 447.9 -23.6 486.7 0L0 0Z" fill="#0099ff"></path></g></svg>