<svg id="visual" viewBox="0 0 900 600" width="900" height="600" xmlns="http://www.w3.org/2000/svg" xmlns:xlink="http://www.w3.org/1999/xlink" version="1.1"><rect x="0" y="0" width="900" height="600" fill="#d0d8de"></rect><defs><linearGradient id="grad1_0" x1="33.3%" y1="0%" x2="100%" y2="100%"><stop offset="20%" stop-color="#d0d8de" stop-opacity="1"></stop><stop offset="80%" stop-color="#d0d8de" stop-opacity="1"></stop></linearGradient></defs><defs><linearGradient id="grad2_0" x1="0%" y1="0%" x2="66.7%" y2="100%"><stop offset="20%" stop-color="#d0d8de" stop-opacity="1"></stop><stop offset="80%" stop-color="#d0d8de" stop-opacity="1"></stop></linearGradient></defs><g transform="translate(900, 0)"><path d="M0 216.3C-14.1 218.3 -28.3 220.3 -36.3 205.8C-44.3 191.4 -46.2 160.4 -54.7 150.4C-63.2 140.3 -78.3 151 -83 143.8C-87.7 136.5 -82.1 111.3 -84.8 101.1C-87.6 91 -98.6 95.9 -121.8 102.2C-145 108.5 -180.5 116.1 -187.3 108.2C-194.2 100.3 -172.4 76.8 -173.8 63.3C-175.2 49.7 -199.8 46.1 -210.7 37.2C-221.7 28.3 -219 14.1 -216.3 0L0 0Z" fill="#0099ff"></path></g><g transform="translate(0, 600)"><path d="M0 -216.3C10.6 -206.6 21.2 -196.8 34.6 -196C47.9 -195.2 63.9 -203.3 69.8 -191.7C75.6 -180.1 71.3 -148.8 84 -145.5C96.7 -142.2 126.4 -167 139.1 -165.7C151.7 -164.5 147.2 -137.2 136.4 -114.4C125.5 -91.7 108.4 -73.5 117.8 -68C127.2 -62.5 163.1 -69.7 182.3 -66.4C201.5 -63 203.9 -49.3 206.8 -36.5C209.7 -23.7 213 -11.8 216.3 0L0 0Z" fill="#0099ff"></path></g></svg>