<?xml version="1.0" standalone="no"?><svg xmlns="http://www.w3.org/2000/svg" viewBox="0 0 1440 320"><path fill="#00cba9" fill-opacity="1" d="M0,96L0,96L36.9,96L36.9,160L73.8,160L73.8,288L110.8,288L110.8,128L147.7,128L147.7,256L184.6,256L184.6,288L221.5,288L221.5,320L258.5,320L258.5,32L295.4,32L295.4,32L332.3,32L332.3,256L369.2,256L369.2,128L406.2,128L406.2,128L443.1,128L443.1,64L480,64L480,192L516.9,192L516.9,320L553.8,320L553.8,96L590.8,96L590.8,32L627.7,32L627.7,32L664.6,32L664.6,192L701.5,192L701.5,96L738.5,96L738.5,288L775.4,288L775.4,288L812.3,288L812.3,256L849.2,256L849.2,128L886.2,128L886.2,96L923.1,96L923.1,32L960,32L960,32L996.9,32L996.9,32L1033.8,32L1033.8,0L1070.8,0L1070.8,320L1107.7,320L1107.7,224L1144.6,224L1144.6,224L1181.5,224L1181.5,64L1218.5,64L1218.5,192L1255.4,192L1255.4,128L1292.3,128L1292.3,64L1329.2,64L1329.2,192L1366.2,192L1366.2,224L1403.1,224L1403.1,96L1440,96L1440,320L1403.1,320L1403.1,320L1366.2,320L1366.2,320L1329.2,320L1329.2,320L1292.3,320L1292.3,320L1255.4,320L1255.4,320L1218.5,320L1218.5,320L1181.5,320L1181.5,320L1144.6,320L1144.6,320L1107.7,320L1107.7,320L1070.8,320L1070.8,320L1033.8,320L1033.8,320L996.9,320L996.9,320L960,320L960,320L923.1,320L923.1,320L886.2,320L886.2,320L849.2,320L849.2,320L812.3,320L812.3,320L775.4,320L775.4,320L738.5,320L738.5,320L701.5,320L701.5,320L664.6,320L664.6,320L627.7,320L627.7,320L590.8,320L590.8,320L553.8,320L553.8,320L516.9,320L516.9,320L480,320L480,320L443.1,320L443.1,320L406.2,320L406.2,320L369.2,320L369.2,320L332.3,320L332.3,320L295.4,320L295.4,320L258.5,320L258.5,320L221.5,320L221.5,320L184.6,320L184.6,320L147.7,320L147.7,320L110.8,320L110.8,320L73.8,320L73.8,320L36.9,320L36.9,320L0,320L0,320Z"></path></svg>